<svg width="20" height="20" viewBox="0 0 20 20" fill="none" xmlns="http://www.w3.org/2000/svg">
<g opacity="0.38">
<path d="M16.75 16.3495L15.75 15.7723L15.25 18C17.6412 16.4031 19.25 13.4185 19.25 10C19.25 6.58154 17.6412 3.59687 15.25 2L15.75 4.22784L16.75 3.65062" stroke="black" stroke-width="1.5" stroke-linecap="round" stroke-linejoin="round"/>
<path d="M6.8613 15.1931C6.26785 15.0357 5.16986 14.6891 4.12278 14.0725C3.06767 13.4511 2.15235 12.6084 1.77303 11.4948C1.76014 11.457 1.75 11.4016 1.75 11.3248V7.99147C1.75 7.70755 1.90832 7.44994 2.1601 7.32226C3.29296 6.74779 5.34574 5.70466 6.64214 5.03305C6.86658 4.91678 7.13342 4.91678 7.35786 5.03305C8.65426 5.70466 10.707 6.74779 11.8399 7.32226C12.0917 7.44994 12.25 7.70755 12.25 7.99147V11.3248C12.25 11.4016 12.2399 11.457 12.227 11.4948C11.8476 12.6084 10.9323 13.4511 9.87722 14.0725C8.83014 14.6891 7.73215 15.0357 7.1387 15.1931C7.04712 15.2174 6.95288 15.2174 6.8613 15.1931Z" stroke="black" stroke-width="1.5"/>
<path d="M7 5V3" stroke="black" stroke-width="1.5" stroke-linecap="round"/>
</g>
</svg>
